<svg version="1.0" xmlns="http://www.w3.org/2000/svg" width="1706.667" height="1677.333" viewBox="0 0 1280 1258">
    <path d="M629.5 1c-13.2 2.9-17.4 5.6-45.4 29C451 141.2 309.5 277.3 212.4 387.5c-57 64.7-103.9 125.9-134.6 175.6C47.9 611.5 19.1 671.8 11.1 703c-1.7 6.3-4.7 20.3-6.8 31L.5 753.5.6 779c.2 26 .3 27.2 5.4 53.3 3.6 18.6 12.1 42.2 22.8 63.2 14.8 29.2 36.5 56.7 61.7 78.1 55.7 47.5 131.9 78 222.5 88.9 27.6 3.4 74.6 3.1 105-.6 10-1.2 36-5.8 37.2-6.5.4-.3.8-.2.8.3-.1 1.3-27.3 22.6-66 51.8-48.5 36.6-58.4 45.3-70.2 61.9-12.9 18.1-15.6 33.2-9.4 51.5 3.4 9.8 6.3 14.4 13.3 21.4 6.7 6.7 18.6 13.1 27.3 14.7 3.7.7 104.5.9 292 .8l286.5-.3 5.9-2.3c11.5-4.3 21.6-11.9 27.6-20.7 6.7-9.9 10.5-25.4 9-37.3-2.8-22.1-22.3-45.1-66-77.4-6.3-4.6-18.7-13.8-27.5-20.3-21.5-15.9-55.2-43.2-54.3-44.1.2-.1 4.1.6 8.8 1.6 40.1 8.7 95.3 10.4 142.5 4.4 40.7-5.2 88.3-17.9 124.5-33.4 91.4-39 150.7-103.8 172.1-188.3 5-19.7 5.8-25.2 7.1-47.7 1-18.9 1-23.3-.6-37-4.6-41.9-18.2-84.3-42.1-131.5-35.9-70.7-95.6-153.3-175.4-243C964 271.5 828 140.9 697.8 31.9 670.5 9 667 6.5 658.1 3.2 650.8.6 636.4-.6 629.5 1z"/>
    <style>
        path { fill: #000; }
        @media (prefers-color-scheme: dark) {
            path { fill: #FFF; }
        }
    </style>
</svg>
